Coordinates
version=1
nRows=10
nColumns=40
inDegrees=yes

Units are S.I. units (second, meters, Newtons, ...)
If the header above contains a line with 'inDegrees', this indicates whether rotational values are in degrees (yes) or radians (no).

endheader
time	pelvis_tilt	pelvis_list	pelvis_rotation	pelvis_tx	pelvis_ty	pelvis_tz	hip_flexion_r	hip_adduction_r	hip_rotation_r	knee_angle_r	knee_angle_r_beta	ankle_angle_r	subtalar_angle_r	mtp_angle_r	hip_flexion_l	hip_adduction_l	hip_rotation_l	knee_angle_l	knee_angle_l_beta	ankle_angle_l	subtalar_angle_l	mtp_angle_l	lumbar_extension	lumbar_bending	lumbar_rotation	arm_flex_r	arm_add_r	arm_rot_r	elbow_flex_r	pro_sup_r	wrist_flex_r	wrist_dev_r	arm_flex_l	arm_add_l	arm_rot_l	elbow_flex_l	pro_sup_l	wrist_flex_l	wrist_dev_l
      4.11700000	      8.71949626	      1.37588226	      1.86705927	      0.05085436	      1.32401747	     -0.00245230	     40.65144183	     -3.90586665	     -1.10788196	     88.45113229	      1.54376349	    -24.20976489	    -23.96525044	      0.00000000	     38.57569604	     -3.58115512	     -1.88605711	     53.88435397	      0.94045939	    -10.19510137	    -17.03257317	      0.00000000	    -62.47669412	      0.51155960	     -1.15288276	     50.71487635	     15.19199472	    -63.90519629	     47.49337209	     80.17769351	      0.00000000	      0.00000000	     58.12772739	     19.33876049	    -62.08168258	     46.77883250	     61.32790224	      0.00000000	      0.00000000
      4.13300000	      8.49755823	      0.30193165	      1.21114420	      0.05074743	      1.32343747	     -0.00227328	     43.92118802	     -2.86367539	     -1.26217641	     92.20453331	      1.60927269	    -23.83207009	    -23.98799574	      0.00000000	     35.11380236	     -4.71202334	     -2.09992100	     49.10160420	      0.85698466	    -11.97620829	    -16.19919951	      0.00000000	    -62.19459991	      0.92093184	     -0.03970453	     50.83476668	     15.54170549	    -63.90636241	     47.65366143	     80.23576679	      0.00000000	      0.00000000	     57.79726076	     18.98722776	    -62.15503115	     46.75160887	     61.16224292	      0.00000000	      0.00000000
      4.15000000	      8.32667128	     -0.49648879	      0.20861783	      0.05071878	      1.32286301	     -0.00167322	     47.17706458	     -1.70774010	     -0.98653603	     95.45193983	      1.66595063	    -23.29873775	    -23.86214689	      0.00000000	     31.61245685	     -5.85965099	     -2.99513151	     44.76317071	      0.78126471	    -13.35952544	    -15.49397677	      0.00000000	    -61.97402643	      0.84352625	      1.04639581	     50.88073158	     15.84455191	    -63.91814227	     47.83579950	     80.56891477	      0.00000000	      0.00000000	     57.52640298	     18.65520369	    -62.19111482	     46.59510394	     60.84566565	      0.00000000	      0.00000000
      4.16700000	      7.96585881	     -1.37283862	     -0.21352373	      0.05054999	      1.32206044	     -0.00166912	     50.52404951	     -0.87341890	     -1.25771817	     98.15383292	      1.71310756	    -22.23552605	    -23.83095735	      0.00000000	     28.75958804	     -6.79919096	     -3.35155475	     41.18505309	      0.71881478	    -14.95773262	    -14.88343181	      0.00000000	    -61.56559616	      1.26614487	      1.92791784	     50.87155270	     15.99071934	    -63.75924470	     47.81534029	     80.59764158	      0.00000000	      0.00000000	     57.27613792	     18.40213513	    -62.35474258	     46.47882868	     60.64460271	      0.00000000	      0.00000000
      4.18300000	      7.68905282	     -1.95110328	     -0.92858502	      0.05050745	      1.32143938	     -0.00128750	     53.79662820	      0.07196480	     -1.06683308	    100.33808761	      1.75122999	    -20.90614326	    -23.45726336	      0.00000000	     25.82668658	     -7.70223573	     -4.43387363	     38.10709890	      0.66509434	    -16.13287217	    -14.30767907	      0.00000000	    -61.24198488	      1.22808583	      2.73848137	     50.75815111	     16.04313351	    -63.50950100	     47.78042294	     80.82440200	      0.00000000	      0.00000000	     57.09765279	     18.16974228	    -62.51203993	     46.23337154	     60.34743559	      0.00000000	      0.00000000
      4.20000000	      7.38037351	     -2.49120466	     -1.37485756	      0.05047423	      1.32070880	     -0.00119999	     56.92105410	      0.81894495	     -1.10864244	    101.84742176	      1.77757284	    -19.63303933	    -23.07507678	      0.00000000	     23.44909563	     -8.44606899	     -5.15031887	     35.97057886	      0.62780503	    -17.09081396	    -13.75058924	      0.00000000	    -60.90096016	      1.34658259	      3.42506908	     50.69187464	     16.08151596	    -63.34864981	     47.73794773	     80.97842092	      0.00000000	      0.00000000	     56.93898749	     17.99217828	    -62.59740216	     46.01913160	     59.95268593	      0.00000000	      0.00000000
      4.21700000	      7.03147064	     -2.91959570	     -1.42033390	      0.05051457	      1.31993191	     -0.00150998	     59.92150578	      1.19671181	     -1.35896627	    102.66155033	      1.79178207	    -18.64766155	    -22.99505070	      0.00000000	     21.70781878	     -8.95499843	     -5.37033464	     34.88346938	      0.60883140	    -17.86383766	    -13.40144987	      0.00000000	    -60.53909347	      1.66329094	      3.86423635	     50.64510584	     16.09656575	    -63.27317730	     47.63619387	     80.82971061	      0.00000000	      0.00000000	     56.84878290	     17.83032576	    -62.61862267	     45.79057998	     59.74670499	      0.00000000	      0.00000000
      4.23300000	      6.82483787	     -3.17593494	     -1.32501907	      0.05063961	      1.31950020	     -0.00200524	     62.56030145	      1.41257733	     -1.49633459	    102.76318766	      1.79355597	    -17.94798701	    -22.90298616	      0.00000000	     20.21832879	     -9.28163296	     -5.39295680	     34.67542787	      0.60520039	    -18.08685949	    -13.25506296	      0.00000000	    -60.34557496	      1.94003424	      4.12464334	     50.63011955	     16.10357184	    -63.22784015	     47.56149631	     80.62168180	      0.00000000	      0.00000000	     56.80077712	     17.72379857	    -62.58641131	     45.59798765	     59.62984805	      0.00000000	      0.00000000
      4.25000000	      6.63270769	     -3.23831359	     -1.29445860	      0.05080234	      1.31901405	     -0.00217238	     64.76797829	      1.64564635	     -1.49859229	    102.21662640	      1.78401668	    -17.24777641	    -22.82224613	      0.00000000	     19.30644691	     -9.57574491	     -5.61419408	     35.55657475	      0.62057930	    -18.18955427	    -13.07903723	      0.00000000	    -60.13381575	      1.98614962	      4.29708553	     50.61118363	     16.05593849	    -63.27630575	     47.42979342	     80.49621521	      0.00000000	      0.00000000	     56.85088916	     17.61731488	    -62.51642218	     45.24588360	     59.50715408	      0.00000000	      0.00000000
      4.26700000	      6.50117070	     -3.15226629	     -1.24983478	      0.05107667	      1.31870155	     -0.00230381	     66.41715636	      1.80561216	     -1.45720438	    100.88119480	      1.76070900	    -17.00551400	    -22.63019962	      0.00000000	     18.88305468	     -9.74132464	     -5.65458014	     37.45546173	      0.65372113	    -17.62042856	    -13.03102505	      0.00000000	    -59.97935642	      1.93237836	      4.33188749	     50.60829198	     16.04551483	    -63.43913009	     47.36964229	     80.46924229	      0.00000000	      0.00000000	     56.90228602	     17.53804079	    -62.41247748	     44.95889186	     59.34310310	      0.00000000	      0.00000000
